<svg xmlns="http://www.w3.org/2000/svg" viewBox="0 0 650 850"><path fill="#02df82" d="M 313 20 C 399.87 18.85 447.99 64.98 473 126 C 482.46 149.07 484.98 175.41 491 202 C 493 239.66 495 277.34 497 315 C 502.32 338.73 499.29 365.90 505 390 C 508.82 406.11 508.72 423.96 513 441 C 520.18 469.59 524.56 498.51 533 526 C 547.70 573.89 567.68 616.89 590 657 C 596.06 667.89 614.52 689.96 606 711 C 596.16 735.28 577.08 755.83 552 765 C 545.08 767.53 530.45 772.11 519 769 C 501.55 764.27 475.61 746.14 454 752 C 434.84 757.19 423.82 770.77 409 780 C 385.19 794.83 358.88 805.37 328 813 C 315.55 816.07 299.30 811.55 291 809 C 264.45 800.86 248.75 789.18 229 775 C 219.18 767.95 210.41 758.53 198 754 C 169.52 743.61 151.80 763.11 131 769 C 120.66 771.93 105.84 769.93 97 767 C 76.70 760.26 48.21 735.43 41 716 C 31.64 690.78 49.16 668.14 58 654 C 80.86 617.39 97.29 574.39 112 530 C 123.45 495.46 128.07 457.70 137 421 C 140.53 406.50 139.86 391.43 143 378 C 145.67 351.34 148.34 324.66 151 298 C 152 271.00 153 244.00 154 217 C 155.96 208.18 154.72 198.34 157 189 C 164.63 157.75 170.16 125.32 185 101 C 204.29 69.37 230.90 44.81 267 30 C 276.66 27.34 286.34 24.66 296 22 C 301.74 20.54 308.66 22.71 313 20 Z"/></svg>
